<?xml version="1.0" encoding="iso-8859-1"?>
<!-- Generator: Adobe Illustrator 16.0.0, SVG Export Plug-In . SVG Version: 6.00 Build 0)  -->
<!DOCTYPE svg PUBLIC "-//W3C//DTD SVG 1.1//EN" "http://www.w3.org/Graphics/SVG/1.1/DTD/svg11.dtd">
<svg version="1.1" id="Capa_1" xmlns="http://www.w3.org/2000/svg" xmlns:xlink="http://www.w3.org/1999/xlink" x="0px" y="0px"
	 width="62.362px" height="62.361px" viewBox="0 0 62.362 62.361" style="enable-background:new 0 0 62.362 62.361;"
	 xml:space="preserve">
<g>
	<g>
		<path d="M4.489,61.891h53.793c2.248,0,4.079-1.854,4.079-4.133V26.471c0-2.279-1.831-4.133-4.079-4.133H23.695l-0.758-1.44
			l-1.851,1.44l-2.677,2.083l-2.707,2.106l7.687,6.794l4.309-3.384l-2.905-5.515h33.49c1.101,0,1.995,0.919,1.995,2.049v19.806
			H2.493V26.471c0-1.13,0.896-2.05,1.997-2.05h9.564l0.62,0.927l1.191-0.927l2.677-2.083l3.502-2.725L4.963,0.995L0.655,4.38
			l12.006,17.958H4.489c-2.25,0-4.08,1.854-4.08,4.133v31.287C0.409,60.036,2.239,61.891,4.489,61.891z M60.276,56.405v1.353
			c0,1.13-0.894,2.05-1.996,2.05H4.489c-1.101,0-1.997-0.92-1.997-2.05v-1.353H60.276z"/>
		<path d="M11.884,33.989v1.562v7.625v1.562h1.562h39.981h1.562v-1.302h2.106h1.562v-1.562v-5.022V35.29h-1.562H54.99v-1.302h-1.562
			h-22.94l-3.04-2.982l-2.962,2.37l0.355,0.612H13.446L11.884,33.989L11.884,33.989z M30.132,36.242
			c-0.008,0.073-0.041,0.136-0.066,0.202c-0.006,0.016-0.009,0.031-0.016,0.048c-0.031,0.065-0.072,0.12-0.117,0.175
			c-0.026,0.032-0.05,0.065-0.082,0.094c-0.035,0.031-0.076,0.053-0.115,0.078c-0.055,0.034-0.107,0.065-0.169,0.087
			c-0.031,0.01-0.062,0.012-0.095,0.019c-0.056,0.011-0.106,0.033-0.166,0.033c-0.025,0-0.046-0.012-0.071-0.015
			c-0.009-0.001-0.015,0.004-0.023,0.003c-0.018-0.003-0.033-0.015-0.05-0.018c-0.085-0.016-0.165-0.039-0.239-0.079
			c-0.024-0.013-0.044-0.03-0.066-0.045c-0.063-0.043-0.12-0.088-0.167-0.145c-0.027-0.032-0.046-0.067-0.069-0.101
			c-0.03-0.049-0.058-0.098-0.078-0.153c-0.023-0.062-0.032-0.127-0.04-0.194c-0.002-0.025-0.015-0.046-0.015-0.072
			c0-0.011,0.007-0.019,0.007-0.031c0-0.028-0.011-0.055-0.008-0.085c0.009-0.067,0.039-0.126,0.062-0.188
			c0.003-0.006,0.004-0.013,0.006-0.02c0.044-0.109,0.107-0.205,0.19-0.285h0.027c0.144-0.127,0.327-0.21,0.533-0.21
			c0.207,0,0.389,0.083,0.534,0.21h0.031C30.053,35.727,30.166,35.972,30.132,36.242z M27.133,37.932c0,0,3.862,0.647,5.7,3.383
			c0,0-1.71-2.896-1.268-5.763h21.862v1.302h3.669v5.022h-3.669v1.302H13.446v-7.625H25.75L27.133,37.932z"/>
		<path d="M0,3.632L3.975,0.51C0.295,0.058,0,3.632,0,3.632z"/>
		<path d="M34.167,41.153c1.516-0.679,3.019-1.381,4.513-2.105c0.15,0.685,0.299,1.37,0.451,2.055
			c0.061,0.274,0.378,0.439,0.64,0.363c1.954-0.564,3.562-1.808,5.439-2.533c0.094,0.569,0.21,1.13,0.302,1.713
			c0.044,0.296,0.388,0.413,0.64,0.364c1.982-0.384,3.673-1.388,5.398-2.396c0.579-0.339,0.055-1.24-0.527-0.899
			c-1.477,0.864-2.943,1.708-4.598,2.14c-0.086-0.542-0.173-1.086-0.282-1.625c-0.031-0.322-0.311-0.612-0.659-0.502
			c-1.945,0.614-3.563,1.873-5.468,2.556c-0.155-0.709-0.309-1.419-0.467-2.128c-0.076-0.348-0.479-0.452-0.764-0.311
			c-1.699,0.838-3.415,1.635-5.145,2.407C33.03,40.528,33.56,41.425,34.167,41.153z"/>
	</g>
</g>
<g>
</g>
<g>
</g>
<g>
</g>
<g>
</g>
<g>
</g>
<g>
</g>
<g>
</g>
<g>
</g>
<g>
</g>
<g>
</g>
<g>
</g>
<g>
</g>
<g>
</g>
<g>
</g>
<g>
</g>
</svg>
